<svg width="106" height="24" viewBox="0 0 106 24" fill="none" xmlns="http://www.w3.org/2000/svg" id="svg-1759434998_1753">
    <path d="M48.9327 22.2404V0H51.9982V20.9142H63.9982L63.9309 0.022472L67.0673 0V22.2404C67.0673 23.2133 66.2855 24 65.3164 24H50.6855C49.7182 24 48.9346 23.2133 48.9346 22.2404H48.9327Z" fill="currentColor"></path>
    <path d="M90.1964 22.2404V0H93.2636V20.9142H105.633V24H91.9473C90.98 24 90.1964 23.2133 90.1964 22.2404Z" fill="currentColor"></path>
    <path d="M30.0167 24H33.0835V13.5767H44.6418V10.4907H33.0835V3.08589H44.4527C44.7909 3.08589 45.0982 2.89002 45.2454 2.58496L46.4691 0H31.7705C30.8025 0 30.0167 0.786727 30.0167 1.75971V24Z" fill="currentColor"></path>
    <path d="M70.4055 1.75971C70.4055 0.786727 71.1891 0 72.1564 0H86.8545L85.6345 2.58496C85.4909 2.89324 85.1818 3.08589 84.8418 3.08589H73.4727V10.4907H85.0309V13.5767H73.4727V20.9142H86.8545V24H72.1564C71.1891 24 70.4055 23.2133 70.4055 22.2404V1.75971Z" fill="currentColor"></path>
    <path d="M1.58764 0C0.709272 0 0 0.712873 0 1.59593V24H19.7555C20.4231 24 21.0653 23.7335 21.5382 23.2582L23.1385 21.6495C23.6115 21.1742 23.8765 20.5287 23.8765 19.8576V0H1.58764ZM15.5896 3.08589L7.82364 10.8922C7.632 11.0849 7.37 11.194 7.09837 11.194C6.70237 11.194 6.33818 10.9627 6.16872 10.6031L3.15946 4.2098C2.91346 3.68638 3.29364 3.08589 3.86873 3.08589H15.5896ZM3.07 20.9142V13.3198C3.07 12.9151 3.39582 12.5876 3.79836 12.5876H11.3536L3.07 20.9142ZM11.9798 11.194H9.47836L17.0049 3.62858C17.35 3.28178 17.8196 3.08589 18.3084 3.08589H20.8096L13.2833 10.6513C12.9382 10.9982 12.4685 11.194 11.9798 11.194Z" fill="#00F58C"></path>
</svg>