<svg width="400" height="91" viewBox="0 0 400 91" fill="none" xmlns="http://www.w3.org/2000/svg">
  <g>
    <path d="M185.287 83.7853V0H196.902V78.7915H242.341L242.085 0.0854172L253.96 0V83.7853C253.96 84.6562 253.788 85.5188 253.455 86.3235C253.121 87.1282 252.633 87.8593 252.017 88.4749C251.401 89.0907 250.67 89.5792 249.865 89.9122C249.06 90.2455 248.198 90.4168 247.327 90.4165H191.91C190.153 90.4142 188.468 89.7146 187.226 88.4713C185.985 87.2279 185.287 85.5425 185.287 83.7853Z" fill="currentColor" />
    <path d="M341.542 83.7853V0H353.157V78.7915H400V90.4165H348.173C346.414 90.4165 344.727 89.718 343.485 88.4743C342.239 87.2307 341.542 85.5441 341.542 83.7853Z" fill="currentColor" />
    <path d="M113.677 90.4165H125.293V51.1499H169.058V39.5249H125.283V11.625H168.335C168.962 11.625 169.576 11.4473 170.106 11.1125C170.636 10.7776 171.06 10.2994 171.329 9.73331L175.956 0H120.298C118.541 0.00331035 116.857 0.703352 115.616 1.94653C114.375 3.18971 113.677 4.87451 113.677 6.63125V90.4165Z" fill="currentColor" />
    <path d="M266.605 6.63125C266.605 5.76041 266.778 4.89812 267.111 4.09357C267.444 3.28904 267.933 2.55801 268.547 1.94224C269.165 1.32647 269.896 0.838024 270.699 0.504772C271.503 0.171522 272.365 0 273.236 0H328.886L324.257 9.73331C323.988 10.2996 323.564 10.7779 323.035 11.1128C322.505 11.4476 321.89 11.6252 321.265 11.625H278.219V39.5249H321.986V51.1499H278.219V78.7915H328.886V90.4165H273.236C271.479 90.4165 269.793 89.718 268.547 88.4743C267.305 87.2307 266.605 85.5441 266.605 83.7853V6.63125Z" fill="currentColor" />
    <path d="M6.01249 0C4.41824 -9.57048e-08 2.88925 0.633169 1.76175 1.76028C0.634251 2.88739 0.000552409 4.41615 0 6.0104V90.4165H74.8103C77.342 90.4162 79.7698 89.4106 81.5603 87.6206L87.6206 81.5603C88.5072 80.674 89.2103 79.6215 89.6901 78.4634C90.1698 77.3053 90.4165 76.0638 90.4165 74.8103V0H6.01249Z" fill="#00F58C" />
    <path d="M59.0353 11.625L29.6313 41.0292C28.901 41.7582 27.911 42.1682 26.879 42.1687C26.142 42.1687 25.4199 41.9592 24.797 41.565C24.1741 41.1708 23.6759 40.6079 23.3604 39.9416L11.9687 15.8562C11.7552 15.4043 11.6593 14.9058 11.6901 14.4069C11.7209 13.908 11.8774 13.425 12.1449 13.0028C12.4125 12.5805 12.7824 12.2329 13.2204 11.992C13.6584 11.7511 14.1502 11.6248 14.65 11.625H59.0353Z" fill="black" />
    <path d="M11.625 78.7915V50.1811C11.6255 49.4482 11.9171 48.7456 12.4355 48.2276C12.9538 47.7097 13.6567 47.4185 14.3896 47.4185H42.998L11.625 78.7915Z" fill="black" />
    <path d="M45.3604 42.1687H35.8873L64.3895 13.6687C65.0368 13.0209 65.8056 12.507 66.6517 12.1563C67.498 11.8057 68.4047 11.6251 69.3208 11.625H78.7915L50.2917 40.1271C48.983 41.4338 47.2096 42.1679 45.3604 42.1687Z" fill="black" />
  </g>
</svg>